<svg id="Calque_1" data-name="Calque 1" xmlns="http://www.w3.org/2000/svg" viewBox="0 0 151.3 268.02"><defs><style>.cls-1{fill:#4bcbc9;}.cls-2{fill:#c4eeed;}</style></defs><g id="arrow-platinium"><path id="cercle-02" class="cls-1" d="M152.26,83.11A45.45,45.45,0,1,1,129.4,23,45.4,45.4,0,0,1,152.26,83.11Z" transform="translate(-4.95 -5.76)"/><path id="cercle-01" class="cls-2" d="M149.67,81.94a42.6,42.6,0,1,1-21.43-56.38A42.55,42.55,0,0,1,149.67,81.94Z" transform="translate(-4.95 -5.76)"/><path class="cls-1" d="M147.16,15.62l-22-9.86L114.47,29.7h0l-1.15,2.58,3.43,6,0,0L113.37,46A18.22,18.22,0,0,0,99.1,77.84l-3.84,8.58h0l-7.73,16.84.44.2-6.58,14.7a6.12,6.12,0,0,0-.51,3.07c0,.39,3.58,39.36,6,64.75,1.71,17.6-30.8,39.4-42.32,45.65a3.79,3.79,0,0,0-.34.2l-1.1-1.78L21.57,243.42a30,30,0,0,0,2.08-18.87c-.41-1.87-1-2.43-2.86-1.36Q15,226.53,9.11,229.56c-1.65.83-1.78,1.75-1.31,3.42a35.2,35.2,0,0,1-2.26,24.93c-.9,1.93-1,2.7,1.51,3A34.67,34.67,0,0,1,29.48,272.7c1.14,1.31,2,1.33,3.34.55,3.85-2.19,7.72-4.37,11.68-6.35,2.22-1.1,1.66-1.94.31-3.3A28,28,0,0,0,32,256.24L51.76,244l-1.07-1.72c6.46-3.53,51.16-29,48.4-57.47-2.18-22.42-5.21-55.47-5.9-63.08l6-13.34.07,0,7.36-16,.07,0,4.54-10.13a18.21,18.21,0,0,0,13.51-30.18l3.81-8.51,6.72-1.27L137,38.43h0Z" transform="translate(-4.95 -5.76)"/></g></svg>