<svg width="256" height="238" viewBox="0 0 256 238" fill="none" xmlns="http://www.w3.org/2000/svg">
<g id="platinium">
<path id="cercle-06" d="M126.553 237.851C192.153 237.851 245.419 184.671 245.525 119.071C245.63 53.471 192.537 0.29158 126.936 0.29158C61.3361 0.29158 8.07086 53.471 7.96508 119.071C7.85929 184.671 60.953 237.851 126.553 237.851Z" fill="#F7C643"/>
<path id="cercle-05" d="M127.362 232.3C189.628 232.3 240.105 181.741 240.105 119.374C240.105 57.0067 189.628 6.4482 127.362 6.4482C65.0949 6.4482 14.6178 57.0067 14.6178 119.374C14.6178 181.741 65.0949 232.3 127.362 232.3Z" fill="#F7C643"/>
<path id="reflect-01" d="M188 26L155.5 77C135.5 64 112.5 68 100 76.5L65.5 27C106.5 -1.5 155.5 5.00001 188 26Z" fill="#FED66D"/>
<path id="reflect-02" d="M16 113L77.1091 116.146C75 140.5 90.8148 157.885 104.426 164.46L78.8078 220.088C33.5 197 14 154 16 113Z" fill="#FED66D"/>
<path id="reflect-03" d="M177.47 219.187L149.639 164.692C171.785 154.342 178.934 131.953 177.822 116.878L238.807 111.25C241.466 162.032 213.977 200.419 177.47 219.187Z" fill="#FED66D"/>
<path id="cercle-04" d="M127.362 233.713C64.4159 233.713 13.2024 182.421 13.2024 119.37C13.2024 56.318 64.4159 5.03049 127.362 5.03049C190.307 5.03049 241.521 56.3223 241.521 119.374C241.521 182.425 190.307 233.713 127.362 233.713ZM127.362 7.8616C65.9733 7.8616 16.0333 57.8866 16.0333 119.37C16.0333 180.853 65.9776 230.878 127.362 230.878C188.75 230.878 238.694 180.853 238.694 119.37C238.694 57.8866 188.75 7.8616 127.362 7.8616Z" fill="#FEF8E7"/>
<path id="cercle-03" opacity="0.5" d="M146.747 166.176C172.556 155.418 184.772 125.74 174.031 99.8886C163.29 74.0375 133.66 61.8023 107.851 72.5605C82.0412 83.3187 69.8257 112.997 80.5666 138.848C91.3075 164.699 120.937 176.934 146.747 166.176Z" fill="#FFB930"/>
<path id="cercle-02" d="M168.301 119.374C168.301 142.053 149.944 160.436 127.305 160.436C104.663 160.436 86.3096 142.053 86.3096 119.374C86.3096 96.6948 104.663 78.312 127.305 78.312C149.948 78.3077 168.301 96.6948 168.301 119.374Z" fill="#F7C643"/>
<path id="cercle-01" d="M145.865 119.374C145.865 129.643 137.553 137.964 127.301 137.964C117.049 137.964 108.741 129.638 108.741 119.374C108.741 109.105 117.053 100.784 127.301 100.784C137.558 100.78 145.865 109.105 145.865 119.374Z" fill="#3A4B4B"/>
</g>
</svg>
